<?xml version="1.0" encoding="utf-8"?>
<!-- Generator: Adobe Illustrator 19.1.0, SVG Export Plug-In . SVG Version: 6.00 Build 0)  -->
<svg version="1.1" id="Layer_1" xmlns="http://www.w3.org/2000/svg" xmlns:xlink="http://www.w3.org/1999/xlink" x="0px" y="0px"
	 viewBox="0 0 1000 1000" style="enable-background:new 0 0 1000 1000;" xml:space="preserve">
<style type="text/css">
	.st0{fill:#FFFFFF;}
</style>
<g>
	<path class="st0" d="M231.8,416c179,0,357.4,0,536.5,0c0.2,4.4,0.5,8.1,0.5,11.8c0,113.1,0,226.1,0,339.2
		c0,18.6-4.5,23.2-22.8,23.2c-164.4,0-328.8,0-493.2,0c-16.3,0-21.6-5.1-21.6-20.9c0-114.2,0-228.4,0-342.6
		C231.2,423.3,231.6,420,231.8,416z M445.6,529.9c7.3,0,14.5-0.1,21.8,0c8.4,0.2,13.3-4.1,13.5-12.2c0.4-15.3,0.3-30.6,0-45.9
		c-0.1-7.7-4.4-12.2-12.2-12.3c-15.3-0.2-30.6-0.3-45.9,0c-7.6,0.1-12.2,4.2-12.3,12.2c-0.1,15.3-0.2,30.6,0,45.9
		c0.1,8.5,5,12.4,13.3,12.3C431,529.9,438.3,529.9,445.6,529.9z M589.5,495.3C589.6,495.3,589.6,495.3,589.5,495.3
		c0-7.3-0.1-14.5,0.1-21.8c0.2-8.9-3.9-13.9-12.8-14c-14.9-0.2-29.8-0.1-44.8,0c-8.4,0-12.8,4.7-12.9,12.8
		c-0.3,14.9-0.3,29.8,0,44.8c0.1,8.1,4.3,12.8,12.9,12.8c14.9,0,29.8,0,44.8,0c8.4,0,12.7-4.4,12.8-12.8
		C589.6,509.8,589.5,502.5,589.5,495.3z M698.1,494.9c0-7.3-0.1-14.5,0-21.8c0.2-9.1-4.2-13.6-13.1-13.6c-14.9-0.1-29.8-0.2-44.7,0
		c-7.7,0.1-12.2,4.1-12.2,12.1c-0.1,15.3-0.1,30.6-0.1,45.9c0,7.8,4,12.3,11.9,12.4c15.3,0.2,30.6,0.1,45.9,0
		c7.8-0.1,12.1-4,12.2-12C698.2,510.2,698.1,502.5,698.1,494.9z M301.9,494c0,7.6,0,15.3,0,22.9c0,8.4,4,12.9,12.5,12.9
		c14.9,0.1,29.8,0,44.7,0c8.4,0,12.8-4.2,12.8-12.6c0-14.9,0-29.8,0-44.7c0-8.4-4.2-12.9-12.5-13c-14.9-0.2-29.8-0.1-44.7,0
		c-8.2,0.1-12.8,4.2-12.8,12.7C301.9,479.4,301.9,486.7,301.9,494z M589.6,712.7c0-7.3-0.1-14.5,0-21.8c0.2-9.4-4-14.3-13.7-14.2
		c-14.5,0.1-29.1,0.1-43.6,0c-9.2-0.1-13.3,4.9-13.4,13.5c-0.2,14.5-0.2,29.1,0,43.6c0.1,8.8,4.7,13.3,13.8,13.1
		c7.6-0.2,15.3,0,22.9,0C592.3,746.9,589.7,749.8,589.6,712.7z M444.8,638.4c7.3,0,14.5-0.2,21.8,0c9.5,0.3,14.3-4.3,14.4-13.7
		c0.1-14.1,0-28.3,0-42.4c0-9.3-4.2-14.2-13.9-14.2c-14.1,0.1-28.3,0.2-42.4,0c-10.2-0.1-14.5,4.8-14.3,14.8
		c0.2,13.8,0.1,27.5,0,41.3c-0.1,9.4,4.2,14.3,13.8,14.2C431.1,638.3,437.9,638.4,444.8,638.4z M445.2,746.8c7.3,0,14.5-0.2,21.8,0
		c9,0.2,13.8-4,14-12.9c0.2-14.9,0.2-29.8,0-44.7c-0.1-8.2-4.5-12.6-13.1-12.5c-14.9,0.1-29.8,0-44.7,0c-8.5,0-12.6,4.4-12.7,12.8
		c0,14.9-0.1,29.8,0,44.7c0,8.6,4.7,12.5,13,12.5C430.7,746.9,437.9,746.8,445.2,746.8z M589.6,603.4c0-7.3-0.1-14.5,0-21.8
		c0.1-9-4.3-13.4-13.3-13.4c-14.9,0-29.8,0-44.7,0c-7.9,0-12.3,4.3-12.5,11.9c-0.3,15.3-0.4,30.6,0,45.9c0.2,7.5,4.2,12.2,12.2,12.3
		c15.3,0.1,30.6,0.1,45.9,0c8.5-0.1,12.4-4.8,12.4-13.1C589.6,617.9,589.6,610.7,589.6,603.4z M371.9,603.5c0-7.3-0.1-14.5,0-21.8
		c0.1-8.9-4-13.6-13.1-13.6c-14.9,0-29.8,0-44.7,0.1c-7.8,0-12.2,4-12.3,11.9c-0.1,15.3-0.1,30.6,0,45.8c0,7.8,3.9,12.2,11.8,12.3
		c15.3,0.1,30.6,0.1,45.8,0c8.6,0,12.4-4.8,12.3-13C371.9,618,371.9,610.8,371.9,603.5z M698.1,604.3c0-7.6-0.1-15.3,0-22.9
		c0.1-8.4-3.7-13.1-12.2-13.1c-15.3-0.1-30.6-0.2-45.8,0c-7.8,0.1-12,4.4-12,12.2c-0.1,15.3-0.1,30.6,0.1,45.8
		c0.1,7.8,4.2,12,12.1,12c8,0.1,16,0,24.1,0.1C701.2,638.5,698.2,641.3,698.1,604.3z M301.8,711.9c0,7.3,0.1,14.5,0,21.8
		c-0.1,8.3,3.6,13.1,12.2,13.1c15.3,0.1,30.5,0.1,45.8,0c7.9-0.1,11.9-4.4,12-12.2c0.1-15.3,0.1-30.5,0-45.8
		c-0.1-7.8-4.2-11.9-12.2-11.9c-14.9,0-29.8,0-44.7-0.1c-9.1-0.1-13.3,4.4-13.1,13.4C301.9,697.4,301.8,704.7,301.8,711.9z"/>
	<path class="st0" d="M805.5,291.5c0-33.9-17.1-50.9-50.8-50.9c-25.6,0-51.1,0-77.8,0c0-15.4,0.4-29.5-0.1-43.5
		c-0.6-16.4-14.9-27.1-29.9-23.1c-10.6,2.8-17.4,12.2-17.6,25.4c-0.2,13.6-0.1,27.2-0.1,40.5c-87.1,0-172.4,0-257.3,0
		c-0.5-1.2-0.7-1.5-0.7-1.9c-0.1-12.6-0.1-25.3-0.4-37.9c-0.3-16.2-9.7-26.7-23.8-26.7c-14.3,0-23.7,10.4-23.8,26.5
		c-0.1,13,0,26,0,40.8c-27.4,0-53.4,0-79.4,0c-31.5,0-49.2,17.6-49.2,49.1c-0.1,162.9-0.1,325.7,0,488.6c0,31.6,17.5,48.7,49.4,48.7
		c170.9,0,341.8,0,512.7,0c31.5,0,49-17.5,49-49.2C805.6,615.7,805.6,453.6,805.5,291.5z M629.2,279.5c0,8.2-0.2,15.3,0,22.4
		c0.5,15.3,10.1,25.7,23.6,25.7c14.2,0,23.6-10.3,24-26.4c0.1-6.8,0-13.6,0-21c15.5,10.6,17.3,33.3,4.7,48.6
		c-13.6,16.6-38.7,18-54,3.1C612.5,317.4,612.7,293.8,629.2,279.5z M323.1,279.3c0,8.7-0.2,16.1,0,23.5c0.4,14.4,10,24.6,23.3,24.8
		c13.2,0.2,23.4-9.6,24.3-23.9c0.4-7.6,0.1-15.2,0.1-23.3c11,7.3,15.2,20.4,11.8,34.3c-3.7,15.1-17.3,26.3-33.1,27.3
		c-16.1,1.1-30.4-7.8-36.5-22.5C306.9,305,310.2,290.5,323.1,279.3z M746,790.2c-164.4,0-328.8,0-493.2,0
		c-16.3,0-21.6-5.1-21.6-20.9c0-114.2,0-228.4,0-342.6c0-3.3,0.4-6.7,0.7-10.6c179,0,357.4,0,536.5,0c0.2,4.4,0.5,8.1,0.5,11.8
		c0,113.1,0,226.1,0,339.2C768.9,785.6,764.3,790.2,746,790.2z"/>
	<path class="st0" d="M445.6,529.9c-7.3,0-14.5,0-21.8,0c-8.3,0-13.1-3.9-13.3-12.3c-0.2-15.3-0.1-30.6,0-45.9
		c0.1-7.9,4.7-12,12.3-12.2c15.3-0.2,30.6-0.2,45.9,0c7.8,0.1,12.1,4.6,12.2,12.3c0.3,15.3,0.4,30.6,0,45.9
		c-0.2,8.1-5.1,12.4-13.5,12.2C460.1,529.8,452.8,529.9,445.6,529.9z"/>
	<path class="st0" d="M589.5,495.3c0,7.3,0.1,14.5,0,21.8c-0.1,8.4-4.4,12.7-12.8,12.8c-14.9,0-29.8,0-44.8,0
		c-8.6,0-12.8-4.7-12.9-12.8c-0.3-14.9-0.3-29.8,0-44.8c0.1-8.1,4.5-12.8,12.9-12.8c14.9-0.1,29.8-0.2,44.8,0c9,0.1,13,5.1,12.8,14
		C589.5,480.7,589.6,488,589.5,495.3C589.6,495.3,589.6,495.3,589.5,495.3z"/>
	<path class="st0" d="M698.1,494.9c0,7.6,0.1,15.3,0,22.9c-0.1,8-4.4,11.9-12.2,12c-15.3,0.1-30.6,0.2-45.9,0
		c-7.9-0.1-11.9-4.6-11.9-12.4c-0.1-15.3,0-30.6,0.1-45.9c0-8,4.5-12,12.2-12.1c14.9-0.2,29.8-0.1,44.7,0
		c8.9,0.1,13.3,4.5,13.1,13.6C698,480.4,698.1,487.6,698.1,494.9z"/>
	<path class="st0" d="M301.9,494c0-7.3,0-14.5,0-21.8c0-8.6,4.5-12.7,12.8-12.7c14.9-0.1,29.8-0.2,44.7,0c8.3,0.1,12.6,4.6,12.5,13
		c0,14.9,0,29.8,0,44.7c0,8.5-4.4,12.6-12.8,12.6c-14.9,0-29.8,0.1-44.7,0c-8.5,0-12.5-4.5-12.5-12.9
		C301.9,509.3,301.9,501.6,301.9,494z"/>
	<path class="st0" d="M589.6,712.7c0.1,37.1,2.7,34.2-33.9,34.1c-7.6,0-15.3-0.1-22.9,0c-9,0.2-13.6-4.3-13.8-13.1
		c-0.2-14.5-0.2-29.1,0-43.6c0.1-8.6,4.2-13.5,13.4-13.5c14.5,0.1,29.1,0.1,43.6,0c9.7-0.1,13.8,4.8,13.7,14.2
		C589.5,698.2,589.6,705.5,589.6,712.7z"/>
	<path class="st0" d="M444.8,638.4c-6.9,0-13.8,0-20.6,0c-9.6,0.1-13.9-4.7-13.8-14.2c0.1-13.8,0.2-27.5,0-41.3
		c-0.2-10,4.1-14.9,14.3-14.8c14.1,0.2,28.3,0.1,42.4,0c9.7-0.1,13.9,4.9,13.9,14.2c0,14.1,0.1,28.3,0,42.4
		c-0.1,9.4-4.8,14-14.4,13.7C459.4,638.2,452.1,638.4,444.8,638.4z"/>
	<path class="st0" d="M445.2,746.8c-7.3,0-14.5,0-21.8,0c-8.3,0-12.9-4-13-12.5c0-14.9,0-29.8,0-44.7c0-8.4,4.1-12.8,12.7-12.8
		c14.9,0,29.8,0.1,44.7,0c8.5-0.1,12.9,4.3,13.1,12.5c0.3,14.9,0.3,29.8,0,44.7c-0.1,8.8-5,13.1-14,12.9
		C459.7,746.6,452.5,746.8,445.2,746.8z"/>
	<path class="st0" d="M589.6,603.4c0,7.3,0,14.5,0,21.8c0,8.3-4,13-12.4,13.1c-15.3,0.1-30.6,0.1-45.9,0c-8-0.1-12-4.8-12.2-12.3
		c-0.3-15.3-0.3-30.6,0-45.9c0.2-7.7,4.6-11.9,12.5-11.9c14.9,0,29.8,0,44.7,0c9,0,13.4,4.4,13.3,13.4
		C589.5,588.9,589.6,596.1,589.6,603.4z"/>
	<path class="st0" d="M371.9,603.5c0,7.3,0,14.5,0,21.8c0,8.3-3.7,13-12.3,13c-15.3,0-30.6,0.1-45.8,0c-7.9-0.1-11.8-4.5-11.8-12.3
		c0-15.3-0.1-30.6,0-45.8c0.1-7.9,4.5-11.9,12.3-11.9c14.9-0.1,29.8,0,44.7-0.1c9.1,0,13.2,4.6,13.1,13.6
		C371.8,589,371.9,596.2,371.9,603.5z"/>
	<path class="st0" d="M698.1,604.3c0.1,37,3.1,34.2-33.7,34.1c-8,0-16,0-24.1-0.1c-7.9-0.1-12.1-4.2-12.1-12
		c-0.2-15.3-0.1-30.5-0.1-45.8c0-7.9,4.2-12.1,12-12.2c15.3-0.1,30.6-0.1,45.8,0c8.5,0.1,12.3,4.8,12.2,13.1
		C698,589,698.1,596.7,698.1,604.3z"/>
	<path class="st0" d="M301.8,711.9c0-7.3,0.1-14.5,0-21.8c-0.1-9,4-13.5,13.1-13.4c14.9,0.1,29.8,0,44.7,0.1c8,0,12.1,4.1,12.2,11.9
		c0.1,15.3,0.1,30.5,0,45.8c0,7.8-4.1,12.1-12,12.2c-15.3,0.1-30.5,0.1-45.8,0c-8.6,0-12.3-4.8-12.2-13.1
		C301.9,726.4,301.8,719.2,301.8,711.9z"/>
</g>
</svg>
