<?xml version="1.0" encoding="utf-8"?>
<!-- Generator: Adobe Illustrator 19.1.0, SVG Export Plug-In . SVG Version: 6.00 Build 0)  -->
<svg version="1.1" id="Layer_1" xmlns="http://www.w3.org/2000/svg" xmlns:xlink="http://www.w3.org/1999/xlink" x="0px" y="0px"
	 viewBox="0 0 1000 1000" style="enable-background:new 0 0 1000 1000;" xml:space="preserve">
<style type="text/css">
	.st0{display:none;}
	.st1{font-family:'InterTight-SemiBold';}
	.st2{font-size:92px;}
	.st3{fill:#FFFFFF;}
	.st4{fill:url(#SVGID_1_);}
	.st5{display:inline;}
	.st6{fill:none;}
</style>
<text transform="matrix(1 0 0 1 35.1464 388.0735)" class="st0 st1 st2">CarePoint</text>
<g>
	<g>
		<path class="st3" d="M104.4,667.9c-16.5,0-31.2-3.8-44.2-11.5c-13-7.6-23.2-18.7-30.6-33s-11.2-31.6-11.2-51.8
			c0-20.2,3.8-37.6,11.3-52c7.5-14.4,17.8-25.4,30.8-33.1c13-7.6,27.6-11.5,43.9-11.5c10.3,0,20,1.5,29,4.4
			c9,2.9,17.1,7.2,24.1,12.9s12.8,12.6,17.3,20.8c4.5,8.2,7.5,17.5,8.9,27.9h-34.3c-0.9-5.7-2.7-10.8-5.4-15.1
			c-2.6-4.4-5.9-8.1-9.8-11.2c-3.9-3.1-8.3-5.4-13.3-6.9c-5-1.6-10.3-2.3-16-2.3c-10.3,0-19.3,2.5-27.2,7.6
			c-7.9,5.1-14.1,12.6-18.5,22.4c-4.5,9.9-6.7,21.9-6.7,36c0,14.3,2.2,26.3,6.7,36.1c4.5,9.8,10.7,17.2,18.5,22.2
			c7.9,5,16.9,7.5,27,7.5c5.6,0,10.9-0.7,15.8-2.2c4.9-1.5,9.3-3.7,13.3-6.7c4-3,7.3-6.6,10-10.8c2.6-4.2,4.5-9.1,5.6-14.7h34.3
			c-1.3,9-4,17.4-8.3,25.3c-4.2,7.9-9.8,14.7-16.6,20.7c-6.8,5.9-14.9,10.6-24,13.9C125.8,666.2,115.6,667.9,104.4,667.9z"/>
		<path class="st3" d="M244.7,668.3c-9,0-17.1-1.6-24.2-4.9c-7.1-3.2-12.8-8-16.9-14.3c-4.1-6.3-6.2-14.1-6.2-23.3
			c0-7.9,1.5-14.4,4.4-19.7c2.9-5.2,7-9.4,12-12.5c5.1-3.1,10.8-5.5,17.2-7.1c6.4-1.6,13-2.8,19.8-3.5c8.3-0.9,15-1.7,20.2-2.4
			c5.1-0.7,8.8-1.8,11.2-3.3c2.3-1.5,3.5-3.9,3.5-7.1v-0.6c0-6.8-2-12.1-6-15.9c-4-3.8-9.9-5.7-17.6-5.7c-8.2,0-14.6,1.8-19.3,5.3
			c-4.7,3.5-8,7.7-9.6,12.5l-30.9-4.4c2.4-8.6,6.5-15.7,12.1-21.5c5.6-5.8,12.5-10.1,20.6-13c8.1-2.9,17.1-4.3,26.9-4.3
			c6.7,0,13.4,0.8,20.2,2.3c6.7,1.6,12.9,4.2,18.5,7.9c5.6,3.7,10.1,8.7,13.5,14.9c3.4,6.2,5,14,5,23.3v94.3h-31.9V646h-1
			c-2,3.9-4.9,7.5-8.5,10.9c-3.7,3.4-8.2,6.2-13.6,8.3C258.5,667.3,252.1,668.3,244.7,668.3z M253.2,643.9c6.7,0,12.5-1.3,17.4-4
			c4.9-2.6,8.7-6.2,11.3-10.6c2.7-4.4,4-9.2,4-14.4v-16.5c-1.1,0.8-2.9,1.6-5.3,2.3c-2.4,0.7-5.2,1.4-8.3,2
			c-3.1,0.6-6.2,1.1-9.1,1.5c-3,0.4-5.6,0.8-7.8,1c-5,0.7-9.4,1.8-13.3,3.3c-3.9,1.6-7,3.7-9.3,6.4c-2.3,2.7-3.4,6.2-3.4,10.5
			c0,6.1,2.2,10.8,6.7,13.9C240.6,642.3,246.3,643.9,253.2,643.9z"/>
		<path class="st3" d="M343.5,665.4V524.5h32.1v23.7h1.5c2.5-8.2,6.9-14.6,13.2-19s13.5-6.6,21.6-6.6c1.8,0,3.8,0.1,6.1,0.3
			c2.3,0.2,4.2,0.4,5.7,0.6V554c-1.4-0.5-3.7-0.9-6.7-1.3c-3-0.3-5.9-0.5-8.7-0.5c-6.1,0-11.6,1.3-16.4,3.9
			c-4.8,2.6-8.6,6.2-11.3,10.7c-2.7,4.5-4.1,9.8-4.1,15.9v82.7H343.5z"/>
		<path class="st3" d="M492.9,668.2c-14.1,0-26.3-3-36.5-8.9c-10.3-5.9-18.1-14.3-23.6-25.1c-5.5-10.8-8.3-23.6-8.3-38.3
			c0-14.5,2.7-27.3,8.2-38.3c5.5-11,13.1-19.5,23.1-25.6c9.9-6.1,21.6-9.2,35-9.2c8.7,0,16.9,1.4,24.6,4.2
			c7.8,2.8,14.7,7.1,20.7,12.9c6,5.8,10.7,13.2,14.2,22.1c3.4,8.9,5.2,19.6,5.2,31.9v10.3H439.9v-22.3h98.9l-15.5,6.6
			c0-8-1.2-14.9-3.7-20.9c-2.4-5.9-6-10.6-10.8-13.9c-4.8-3.4-10.8-5-17.9-5c-7.1,0-13.2,1.7-18.3,5c-5,3.4-8.9,7.9-11.5,13.5
			c-2.6,5.7-3.9,12-3.9,19v15.5c0,8.6,1.5,15.9,4.5,22c3,6.1,7.2,10.7,12.6,13.9c5.4,3.2,11.7,4.8,19,4.8c4.7,0,9-0.7,12.9-2
			c3.9-1.3,7.3-3.4,10.1-6.1c2.8-2.7,5-6.1,6.5-10.1l31,3.7c-2,8.2-5.7,15.3-11.2,21.4c-5.4,6.1-12.4,10.8-20.8,14.1
			S503.8,668.2,492.9,668.2z"/>
		<g>
			<path class="st3" d="M18.5,879V691.2h70.5c14.4,0,26.6,2.7,36.4,8.1c9.8,5.4,17.2,12.8,22.2,22.2c5,9.4,7.6,20.1,7.6,32
				c0,12-2.5,22.7-7.6,32.1c-5.1,9.4-12.6,16.7-22.5,22.1c-9.9,5.3-22.1,8-36.5,8H41.8v-28h42c8.5,0,15.4-1.4,20.9-4.3
				s9.4-6.9,12-12.1c2.6-5.2,3.8-11.1,3.8-17.7c0-6.7-1.3-12.6-3.8-17.7c-2.6-5.1-6.6-9-12-11.8c-5.4-2.8-12.4-4.2-21-4.2H52.5V879
				H18.5z"/>
			<path class="st3" d="M232.9,881.7c-13.8,0-25.7-3-35.8-9.1c-10.1-6-17.9-14.5-23.4-25.5c-5.5-10.9-8.3-23.6-8.3-38.1
				c0-14.5,2.8-27.3,8.3-38.3c5.5-11,13.3-19.5,23.4-25.5c10.1-6,22-9.1,35.8-9.1c13.8,0,25.7,3,35.8,9.1
				c10.1,6,17.9,14.6,23.4,25.5c5.5,11,8.3,23.7,8.3,38.3c0,14.5-2.8,27.1-8.3,38.1c-5.5,10.9-13.4,19.4-23.4,25.5
				C258.6,878.7,246.7,881.7,232.9,881.7z M232.9,855c7.6,0,13.9-2,18.9-6.1c5-4.1,8.7-9.6,11.2-16.6c2.5-7,3.7-14.7,3.7-23.2
				c0-8.7-1.2-16.5-3.7-23.4c-2.5-7-6.2-12.5-11.2-16.6c-5-4.1-11.3-6.1-18.9-6.1c-7.5,0-13.7,2-18.8,6.1c-5,4.1-8.8,9.6-11.3,16.6
				c-2.5,7-3.7,14.8-3.7,23.4c0,8.5,1.2,16.2,3.7,23.2c2.5,7,6.2,12.5,11.3,16.6C219.1,853,225.4,855,232.9,855z"/>
			<path class="st3" d="M335.3,718.3c-5.3,0-9.8-1.8-13.6-5.3s-5.7-7.8-5.7-12.7c0-5,1.9-9.3,5.7-12.9c3.8-3.5,8.3-5.3,13.6-5.3
				c5.2,0,9.7,1.8,13.5,5.3c3.8,3.5,5.7,7.8,5.7,12.7c0,5-1.9,9.3-5.7,12.9C345,716.5,340.5,718.3,335.3,718.3z M318.7,879V738.1
				h33.1V879H318.7z"/>
			<path class="st3" d="M409.4,796.5V879h-33.1V738.1h32.5v24.1h1.6c3.2-7.9,8.2-14.2,15.1-18.8c6.8-4.7,15.6-7,26.2-7
				c9.7,0,18.2,2.1,25.5,6.2c7.2,4.1,12.8,10.1,16.8,18.1c4,7.9,6,17.5,6,28.8V879h-33.1v-84.4c0-9.4-2.4-16.8-7.3-22.1
				c-4.9-5.3-11.6-8-20.2-8c-5.8,0-10.9,1.3-15.4,3.8c-4.5,2.5-8,6.2-10.6,10.9C410.7,783.8,409.4,789.7,409.4,796.5z"/>
			<path class="st3" d="M594.6,738.1v25.7h-80.8v-25.7H594.6z M533.6,704.5h33.1v132.1c0,5.5,1.2,9.6,3.7,12.3c2.4,2.6,6.3,4,11.6,4
				c1.4,0,3-0.1,4.8-0.4c1.8-0.3,3.4-0.5,4.8-0.9l5.7,26c-3.5,1.1-7.1,1.9-10.7,2.5c-3.6,0.5-7.2,0.8-10.8,0.8
				c-13.1,0-23.4-3.5-30.9-10.4c-7.5-6.9-11.2-16.4-11.2-28.4V704.5z"/>
		</g>
	</g>
	<linearGradient id="SVGID_1_" gradientUnits="userSpaceOnUse" x1="382.6018" y1="173.0509" x2="906.0749" y2="634.9389">
		<stop  offset="0" style="stop-color:#39B54A"/>
		<stop  offset="1" style="stop-color:#57FF2A"/>
	</linearGradient>
	<polygon class="st4" points="981.5,363.1 706.6,363.1 706.6,118.3 598.5,118.3 598.5,363.1 323.6,363.1 323.6,459.4 598.5,459.4 
		598.5,704.3 706.6,704.3 706.6,459.4 981.5,459.4 	"/>
</g>
<g class="st0">
	<g class="st5">
		<polygon class="st3" points="395.3,257.5 422.5,257.5 459,346.4 460.4,346.4 496.9,257.5 524.5,257.5 524.5,380.3 502.6,380.3 
			502.6,295.9 501.7,295.9 467.5,379.9 451.5,379.9 417.8,295.8 416.7,295.8 416.7,380.3 395.3,380.3 		"/>
		<path class="st3" d="M554.9,414.8c-3,0.1-5.7-0.2-8.2-0.6c-2.5-0.5-4.5-1-6.1-1.6l5.1-16.9l1.1,0.3c4.4,1.2,8.1,1.2,11.2,0.2
			c3.1-1,5.6-4,7.5-9l1.8-4.9L534,288.2h23l21.2,69.6h1l21.3-69.6h23.2l-36.9,103.3c-1.7,4.9-4,9.1-6.8,12.6
			c-2.8,3.5-6.3,6.2-10.4,8C565.4,413.8,560.5,414.8,554.9,414.8z"/>
	</g>
	<g class="st5">
		<polygon class="st3" points="518.4,572.9 518.4,450.1 540.6,450.1 540.6,502.1 597.5,502.1 597.5,450.1 619.8,450.1 619.8,572.9 
			597.5,572.9 597.5,520.8 540.6,520.8 540.6,572.9 		"/>
		<path class="st3" d="M677.4,574.7c-9.2,0-17.2-1.9-23.9-5.8c-6.7-3.9-11.9-9.4-15.5-16.4c-3.6-7.1-5.4-15.4-5.4-25.1
			c0-9.5,1.8-17.8,5.4-25c3.6-7.2,8.6-12.8,15.1-16.8c6.5-4,14.1-6,22.9-6c5.7,0,11,0.9,16.1,2.7c5.1,1.8,9.6,4.6,13.5,8.4
			c3.9,3.8,7,8.6,9.3,14.5c2.3,5.9,3.4,12.8,3.4,20.9v6.8h-75.5v-14.6h64.7l-10.1,4.3c0-5.2-0.8-9.8-2.4-13.6
			c-1.6-3.9-4-6.9-7.1-9.1c-3.1-2.2-7-3.3-11.7-3.3c-4.7,0-8.7,1.1-11.9,3.3c-3.3,2.2-5.8,5.2-7.5,8.9c-1.7,3.7-2.6,7.8-2.6,12.4
			v10.1c0,5.6,1,10.4,2.9,14.4c1.9,4,4.7,7,8.2,9.1c3.5,2.1,7.7,3.1,12.4,3.1c3.1,0,5.9-0.4,8.4-1.3c2.6-0.9,4.8-2.2,6.6-4
			c1.8-1.8,3.3-4,4.2-6.6l20.3,2.4c-1.3,5.3-3.7,10-7.3,14c-3.5,4-8.1,7.1-13.6,9.2S684.6,574.7,677.4,574.7z"/>
		<path class="st3" d="M801.8,496c-2.2-4.1-5.1-7.3-8.8-9.7c-3.7-2.4-7.7-4.1-12.1-5.2c-4.4-1-8.8-1.5-13.2-1.5
			c-6.4,0-12.3,0.9-17.6,2.8c-5.3,1.9-9.8,4.7-13.5,8.5c-3.7,3.8-6.3,8.4-7.9,14.1l20.2,2.9c1.1-3.1,3.2-5.9,6.3-8.2
			c3.1-2.3,7.3-3.5,12.7-3.5c5.1,0,8.9,1.2,11.5,3.7c2.6,2.5,4,5.9,4,10.4v0.4c0,2.1-0.8,3.6-2.3,4.6c-1.5,1-3.9,1.7-7.3,2.1
			c-3.4,0.4-7.7,1-13.2,1.6c-4.5,0.4-8.8,1.2-12.9,2.3c-4.2,1.1-7.9,2.6-11.2,4.7c-3.3,2-5.9,4.8-7.9,8.2c-1.9,3.4-2.9,7.7-2.9,12.9
			c0,6,1.3,11.1,4,15.2c2.7,4.1,6.4,7.2,11,9.4c4.7,2.1,9.9,3.2,15.8,3.2c4.8,0,9-0.7,12.6-2.1c3.5-1.4,6.5-3.2,8.9-5.4
			c2.4-2.2,4.2-4.6,5.6-7.1h0.7v12.7h20.9v-61.6C805.1,505.2,804,500.1,801.8,496z M783.5,539.9c0,3.4-0.9,6.6-2.6,9.4
			c-1.8,2.9-4.2,5.2-7.4,6.9c-3.2,1.7-7,2.6-11.4,2.6c-4.5,0-8.2-1-11.1-3c-2.9-2-4.4-5.1-4.4-9.1c0-2.8,0.7-5.1,2.2-6.8
			c1.5-1.8,3.5-3.1,6.1-4.2c2.6-1,5.5-1.7,8.7-2.2c1.4-0.2,3.1-0.4,5.1-0.7c1.9-0.3,3.9-0.6,6-1c2-0.4,3.8-0.8,5.4-1.3
			c1.6-0.5,2.7-1,3.5-1.5V539.9z"/>
		<rect x="821.2" y="450.1" class="st3" width="21.7" height="122.8"/>
		<rect x="851.9" y="480.8" class="st3" width="52.8" height="16.8"/>
		<path class="st3" d="M864.8,458.9h21.7v86.4c0,3.6,0.8,6.3,2.4,8c1.6,1.7,4.1,2.6,7.6,2.6c0.9,0,2-0.1,3.1-0.2
			c1.2-0.2,2.2-0.4,3.1-0.6l3.7,17c-2.3,0.7-4.6,1.2-7,1.6c-2.4,0.4-4.7,0.5-7.1,0.5c-8.6,0-15.3-2.3-20.2-6.8
			c-4.9-4.5-7.3-10.7-7.3-18.6V458.9z"/>
		<path class="st3" d="M940.3,519v53.9h-21.7V450.1h21.2v46.4h1.2c2.1-5.2,5.5-9.3,10-12.4c4.5-3,10.3-4.5,17.4-4.5
			c6.4,0,11.9,1.3,16.7,4c4.8,2.7,8.4,6.6,11.1,11.8c2.6,5.2,4,11.5,4,18.9v58.6h-21.8v-55.2c0-6.3-1.6-11.1-4.8-14.5
			c-3.2-3.4-7.6-5.2-13.4-5.2c-3.8,0-7.3,0.8-10.3,2.5c-3,1.6-5.3,4-7,7.1C941.1,510.7,940.3,514.5,940.3,519z"/>
	</g>
	<g class="st5">
		<path class="st3" d="M438.6,742.5c-9.6,0-17.9-1.5-24.9-4.5c-7-3-12.5-7.3-16.5-13c-4-5.7-6.1-12.6-6.4-20.7h21.9
			c0.3,4.3,1.6,7.8,4,10.7c2.3,2.8,5.3,5,9.1,6.4c3.8,1.4,8,2.1,12.6,2.1c4.8,0,9.1-0.7,12.8-2.2c3.7-1.5,6.6-3.5,8.7-6.2
			c2.1-2.6,3.1-5.7,3.1-9.2c0-3.2-0.9-5.8-2.8-7.9c-1.9-2.1-4.5-3.8-7.7-5.2c-3.3-1.4-7.2-2.7-11.6-3.8l-13.9-3.6
			c-10.1-2.6-18.1-6.5-23.9-11.8c-5.8-5.3-8.7-12.4-8.7-21.2c0-7.3,1.9-13.6,5.9-19c3.9-5.4,9.2-9.6,16-12.7c6.8-3,14.5-4.5,23-4.5
			c8.7,0,16.4,1.5,23,4.5c6.6,3,11.8,7.2,15.5,12.5c3.7,5.3,5.7,11.5,5.9,18.4h-21.5c-0.5-5.3-2.9-9.4-7-12.2
			c-4.1-2.9-9.5-4.3-16.1-4.3c-4.6,0-8.6,0.7-11.9,2.1c-3.3,1.4-5.9,3.3-7.6,5.7c-1.8,2.4-2.6,5.2-2.6,8.2c0,3.4,1,6.2,3.1,8.4
			c2.1,2.2,4.7,3.9,7.9,5.2c3.2,1.3,6.5,2.4,9.8,3.3l11.5,2.9c4.6,1.1,9.1,2.6,13.4,4.4c4.3,1.8,8.1,4.1,11.6,6.9
			c3.4,2.8,6.2,6.1,8.2,10.1c2,4,3,8.6,3,13.9c0,7.1-1.8,13.4-5.5,18.9c-3.7,5.5-9,9.7-15.9,12.8
			C456.7,740.9,448.4,742.5,438.6,742.5z"/>
		<rect x="497.5" y="617.8" class="st3" width="21.7" height="122.8"/>
		<path class="st3" d="M614.1,669.9c-3.6-7.2-8.7-12.7-15.3-16.7s-14.4-5.9-23.4-5.9c-9,0-16.8,2-23.4,5.9s-11.7,9.5-15.3,16.7
			c-3.6,7.2-5.4,15.5-5.4,25c0,9.5,1.8,17.7,5.4,24.9c3.6,7.1,8.7,12.7,15.3,16.6c6.6,4,14.4,5.9,23.4,5.9c9,0,16.8-2,23.4-5.9
			c6.6-4,11.7-9.5,15.3-16.6c3.6-7.1,5.4-15.4,5.4-24.9C619.5,685.4,617.7,677.1,614.1,669.9z M595,710.1c-1.6,4.6-4.1,8.2-7.3,10.8
			c-3.2,2.7-7.4,4-12.4,4c-4.9,0-9-1.3-12.3-4c-3.3-2.7-5.8-6.3-7.4-10.8c-1.6-4.6-2.4-9.6-2.4-15.2c0-5.7,0.8-10.8,2.4-15.3
			c1.6-4.6,4.1-8.2,7.4-10.8c3.3-2.7,7.4-4,12.3-4c5,0,9.1,1.3,12.4,4c3.2,2.7,5.7,6.3,7.3,10.8c1.6,4.6,2.4,9.7,2.4,15.3
			C597.4,700.5,596.6,705.5,595,710.1z"/>
		<rect x="624.5" y="648.4" class="st3" width="52.8" height="16.8"/>
		<path class="st3" d="M637.5,626.5h21.7v86.4c0,3.6,0.8,6.3,2.4,8c1.6,1.7,4.1,2.6,7.6,2.6c0.9,0,2-0.1,3.1-0.2
			c1.2-0.2,2.2-0.4,3.1-0.6l3.7,17c-2.3,0.7-4.6,1.2-7,1.6c-2.4,0.4-4.7,0.5-7.1,0.5c-8.6,0-15.3-2.3-20.2-6.8
			c-4.9-4.5-7.3-10.7-7.3-18.6V626.5z"/>
	</g>
</g>
<rect class="st6" width="1000" height="1000"/>
</svg>
