<?xml version="1.0" encoding="utf-8"?>
<!-- Generator: Adobe Illustrator 19.1.0, SVG Export Plug-In . SVG Version: 6.00 Build 0)  -->
<svg version="1.1"
	 id="Layer_1" image-rendering="optimizeQuality" shape-rendering="geometricPrecision" text-rendering="geometricPrecision"
	 xmlns="http://www.w3.org/2000/svg" xmlns:xlink="http://www.w3.org/1999/xlink" x="0px" y="0px" viewBox="-243 318.1 512 364.9"
	 style="enable-background:new -243 318.1 512 364.9;" xml:space="preserve">
<style type="text/css">
	.st0{fill:#00C951;}
</style>
<path class="st0" d="M116.3,442.7c-13.6,6.7-25.7,15.4-37.4,24.9l-20.1-23c14.8-13.7,32.1-24.5,50.6-32.4
	C71.9,345.7-19,328.3-78.9,374.8c-21.8,16.8-38.3,42-44.6,75.4l-2,10.4l-10.4,1.8c-10.2,1.8-19.3,4.2-27.3,7.4
	c-49.8,19.3-63.8,74.7-33.3,116.8c13,17.9,29.7,36.2,51.5,39.2h30.5c-0.2,3-0.3,6-0.3,9.1c0,7.3,0.6,14.5,1.8,21.5h-32.5l-1.9-0.2
	c-30.5-3.9-55.6-26.6-73.8-51.7c-42.3-58.2-21.5-136.6,47.1-163.2c7.2-2.8,14.8-5.1,22.9-7c9.1-36.3,28.6-64.3,53.7-83.7
	c77.2-59.8,193.1-34.3,237.3,53.6c6.6-1,13.3-1.6,19.9-1.5c98.9,0.7,138,127.2,86.7,195.3c-20.6,27.3-52.1,50.5-84.6,58l-3.4,0.4
	h-19.8c1.7-10.1,2.2-20.4,1.5-30.6h16.6c24.1-5.8,49.9-25.7,65.2-46.2c36.5-48.6,10.6-146-62.4-146.5
	C145.2,433.1,130.4,436.5,116.3,442.7L116.3,442.7z M-8.3,683h42.6c10,0,18.1-8.2,18.1-18.1v-58.6h31c6.5-0.3,11.2-2.4,13.9-6.5
	c7.3-10.9-2.7-21.7-9.5-29.3c-19.5-21.5-53.2-53.2-62.9-64.6c-7.3-8.1-17.7-8.1-25,0c-10,11.6-44.8,45.8-63.4,66.6
	c-6.4,7.3-14.4,17.2-7.7,27.2c2.8,4.1,7.4,6.2,13.9,6.5h31v58.6C-26.4,674.7-18.2,683-8.3,683L-8.3,683z"/>
</svg>
